HIERARCHY
ROOT Hips
{
	OFFSET 0.000000 0.000000 0.000000
	CHANNELS 6 Xposition Yposition Zposition Zrotation Yrotation Xrotation 
	JOINT LeftUpLeg_virtual
	{
		OFFSET 0.000000 0.000000 0.000000
		CHANNELS 3 Zrotation Yrotation Xrotation
		JOINT LeftUpLeg
		{
			OFFSET 8.479694 -4.795517 -0.379053
			CHANNELS 3 Zrotation Yrotation Xrotation
			JOINT LeftLeg
			{
				OFFSET 0.485052 -32.551468 0.112863
				CHANNELS 3 Zrotation Yrotation Xrotation
				JOINT LeftFoot
				{
					OFFSET 0.438033 -32.635670 -3.012641
					CHANNELS 3 Zrotation Yrotation Xrotation
					JOINT LeftToeBase
					{
						OFFSET 0.970169 -13.225353 11.864223
						CHANNELS 3 Zrotation Yrotation Xrotation
						End Site
						{
							OFFSET 0.000000 0.000000 0.000000
						}
					}
				}
			}
		}
	}
	JOINT RightUpLeg_virtual
	{
		OFFSET 0.000000 0.000000 0.000000
		CHANNELS 3 Zrotation Yrotation Xrotation
		JOINT RightUpLeg
		{
			OFFSET -8.479694 -4.795517 -0.379053
			CHANNELS 3 Zrotation Yrotation Xrotation
			JOINT RightLeg
			{
				OFFSET -0.484100 -32.551483 0.112903
				CHANNELS 3 Zrotation Yrotation Xrotation
				JOINT RightFoot
				{
					OFFSET -0.438985 -32.635651 -3.012681
					CHANNELS 3 Zrotation Yrotation Xrotation
					JOINT RightToeBase
					{
						OFFSET -0.970169 -13.225354 11.864223
						CHANNELS 3 Zrotation Yrotation Xrotation
						End Site
						{
							OFFSET 0.000000 0.000000 0.000000
						}
					}
				}
			}
		}
	}
	JOINT Spine_virtual
	{
		OFFSET 0.000000 0.000000 0.000000
		CHANNELS 3 Zrotation Yrotation Xrotation
		JOINT Spine
		{
			OFFSET 0.000000 7.722015 1.166203
			CHANNELS 3 Zrotation Yrotation Xrotation
			JOINT Spine1
			{
				OFFSET 0.000000 12.024086 0.248766
				CHANNELS 3 Zrotation Yrotation Xrotation
				JOINT Spine2
				{
					OFFSET -0.000000 11.503036 -0.491240
					CHANNELS 3 Zrotation Yrotation Xrotation
					JOINT Neck_virtual
					{
						OFFSET 0.000000 0.000000 0.000000
						CHANNELS 3 Zrotation Yrotation Xrotation
						JOINT Neck
						{
							OFFSET 0.000000 18.430687 -3.123054
							CHANNELS 3 Zrotation Yrotation Xrotation
							JOINT Head
							{
								OFFSET -0.000000 9.051071 1.034021
								CHANNELS 3 Zrotation Yrotation Xrotation
								End Site
								{
									OFFSET 0.000000 0.000000 0.000000
								}
							}
						}
					}
					JOINT LeftShoulder_virtual
					{
						OFFSET 0.000000 0.000000 0.000000
						CHANNELS 3 Zrotation Yrotation Xrotation
						JOINT LeftShoulder
						{
							OFFSET 6.197824 13.665230 -4.064723
							CHANNELS 3 Zrotation Yrotation Xrotation
							JOINT LeftArm
							{
								OFFSET 7.778132 -0.187073 -1.709282
								CHANNELS 3 Zrotation Yrotation Xrotation
								JOINT LeftForeArm
								{
									OFFSET 21.954697 0.000000 -2.041093
									CHANNELS 3 Zrotation Yrotation Xrotation
									JOINT LeftHand
									{
										OFFSET 22.992908 0.000000 -0.870901
										CHANNELS 3 Zrotation Yrotation Xrotation
										End Site
										{
											OFFSET 0.000000 0.000000 0.000000
										}
									}
								}
							}
						}
					}
					JOINT RightShoulder_virtual
					{
						OFFSET 0.000000 0.000000 0.000000
						CHANNELS 3 Zrotation Yrotation Xrotation
						JOINT RightShoulder
						{
							OFFSET -6.197824 13.665230 -4.064723
							CHANNELS 3 Zrotation Yrotation Xrotation
							JOINT RightArm
							{
								OFFSET -7.778132 -0.187073 -1.709282
								CHANNELS 3 Zrotation Yrotation Xrotation
								JOINT RightForeArm
								{
									OFFSET -21.954697 0.000000 -2.041093
									CHANNELS 3 Zrotation Yrotation Xrotation
									JOINT RightHand
									{
										OFFSET -22.992908 0.000000 -0.870901
										CHANNELS 3 Zrotation Yrotation Xrotation
										End Site
										{
											OFFSET 0.000000 0.000000 0.000000
										}
									}
								}
							}
						}
					}
				}
			}
		}
	}
}
MOTION
Frames: 4
Frame Time: 0.033333
-7.863931 66.470268 -33.232307 179.895517 1.065034 -179.969051 -0.405267 -1.239042 5.663387 -1.309846 8.954429 -70.777316 8.657913 2.211929 78.034023 -4.437205 -10.855910 -12.911697 0.000000 0.000000 0.000000 1.342402 -0.154869 7.554678 -1.371241 -6.587446 -75.099706 1.622885 2.289801 79.182042 2.751974 3.986153 -9.904369 0.000000 0.000000 0.000000 2.744195 1.705488 1.071244 -1.032996 0.753338 0.593656 -0.326285 -2.668022 5.865266 -0.005650 0.001113 0.026159 -0.319823 -2.158267 7.490034 -0.587263 1.209973 0.634385 0.000000 0.000000 0.000000 1.115115 -1.743487 3.762669 -0.473259 0.982791 0.540657 -54.668609 -28.565784 27.040536 102.376285 -87.111946 -75.755001 0.000000 0.000000 0.000000 -2.579550 -0.275030 2.813455 10.887462 -1.780622 -6.861223 23.395975 53.062018 -20.767067 178.092087 63.971647 169.549706 0.000000 0.000000 0.000000 
-7.856038 66.472122 -33.240307 179.953778 0.934919 -179.924477 -0.272870 -1.401571 5.602995 -1.515716 9.061139 -70.782992 8.738341 2.064284 78.022993 -4.395725 -10.947435 -12.850815 0.000000 0.000000 0.000000 1.355777 -0.231647 7.493226 -1.350053 -6.606694 -75.094283 1.624514 2.259576 79.179364 2.722270 3.991449 -9.929156 0.000000 0.000000 0.000000 2.803931 1.583041 0.948463 -1.041765 0.694567 0.520562 -0.330422 -2.675898 5.800424 0.017896 -0.014206 0.025982 -0.385939 -2.218730 7.414372 -0.529873 1.221021 0.372749 0.000000 0.000000 0.000000 1.080329 -1.825786 3.656910 -0.319645 1.036584 0.445994 -54.773240 -28.460182 26.900003 104.606143 -87.089331 -78.066180 0.000000 0.000000 0.000000 -2.660044 -0.247881 2.753175 10.755507 -1.726517 -6.812895 23.122185 53.353627 -21.455863 178.376933 64.021398 169.788667 0.000000 0.000000 0.000000 
-7.846007 66.475929 -33.232029 179.945978 1.034035 -179.947290 -0.345646 -1.351645 5.550936 -1.322429 9.047925 -70.726213 8.736864 2.153143 78.079902 -4.296189 -11.081204 -12.860877 0.000000 0.000000 0.000000 1.356494 -0.221662 7.449342 -1.311191 -6.590896 -75.020394 1.629179 2.236134 79.173606 2.724272 3.996270 -9.883058 0.000000 0.000000 0.000000 2.816432 1.531652 0.893162 -1.040219 0.679280 0.485536 -0.363343 -2.637758 5.743084 -0.000699 0.011559 0.004784 -0.396152 -2.178339 7.360248 -0.511735 1.217242 0.156328 0.000000 0.000000 0.000000 1.077875 -1.805101 3.659862 -0.204494 0.980142 0.410838 -54.877517 -28.416707 26.790539 105.524620 -87.020729 -79.092771 0.000000 0.000000 0.000000 -2.651994 -0.271676 2.721809 10.677109 -1.690468 -6.732961 22.817586 53.638329 -22.209603 178.241696 64.090848 169.578052 0.000000 0.000000 0.000000 
-7.851041 66.481194 -33.205898 179.949147 1.040239 -179.902948 -0.375283 -1.441991 5.451528 -1.341438 9.110716 -70.697758 8.745821 2.104327 78.058236 -4.222642 -11.150762 -12.848909 0.000000 0.000000 0.000000 1.325085 -0.270096 7.384659 -1.238376 -6.614704 -75.003236 1.631265 2.211489 79.121553 2.754547 4.002128 -9.816056 0.000000 0.000000 0.000000 2.799217 1.446650 0.827421 -0.999388 0.638745 0.391995 -0.371194 -2.635646 5.651961 0.015340 0.004655 0.003556 -0.432635 -2.204200 7.311255 -0.526598 1.213263 -0.013744 0.000000 0.000000 0.000000 1.038103 -1.830232 3.628798 -0.147609 0.889765 0.402712 -54.984846 -28.242733 26.667012 106.406294 -87.021255 -80.074904 0.000000 0.000000 0.000000 -2.684958 -0.285533 2.699286 10.550698 -1.651438 -6.654470 22.602283 53.773666 -22.640339 178.413475 64.243175 169.670751 0.000000 0.000000 0.000000 
